#!OML:ASF E:\emotionWalksFemale\Project 1\Capture day 1\Session 1\Female1.ASF
:FULLY-SPECIFIED
:DEGREES
2679
root 10.2577 15.4134 17.5903 -1.82927 2.34186 2.26155
lowerback 6.08449 -1.95734 -4.67931
upperback -6.03927 -3.15302 -0.215293
thorax -9.60975 -1.21432 2.83633
lowerneck -0.154658 -1.03345 -3.44569
upperneck 0.494099 -1.39497 5.07903
head 0.244235 -0.692946 2.1758
rclavicle -1.86795e-014 -1.08586e-014
rhumerus -49.8568 -0.449722 -77.1753
rradius 34.1314
rwrist 15.4292
rhand -0.0527655 -49.3444
rfingers 7.12502
rthumb 25.5398 -77.6524
lclavicle -1.86795e-014 -1.08586e-014
lhumerus -34.5612 -7.92877 91.2615
lradius 50.277
lwrist -5.28716
lhand -8.359 -33.9822
lfingers 7.12502
lthumb 17.5634 -4.75556
rfemur -25.3586 4.11131 20.0037
rtibia 33.5044
rfoot -16.8428 -22.605
rtoes -14.2976
lfemur 15.2363 -17.6697 -36.4828
ltibia 6.39779
lfoot -17.522 19.5575
ltoes -14.6488
2680
root 10.2447 15.4166 17.6357 -1.18653 2.65039 1.48544
lowerback 6.27228 -2.01575 -3.82763
upperback -6.42289 -3.14709 -0.0400253
thorax -10.1766 -1.24279 2.56718
lowerneck -0.140468 -1.13249 -3.51305
upperneck 0.563081 -1.52952 5.03802
head 0.269697 -0.760263 2.17389
rclavicle -1.51107e-014 -1.04785e-014
rhumerus -50.1623 -0.210465 -77.4386
rradius 34.6031
rwrist 14.9252
rhand 0.0213196 -49.2682
rfingers 7.12502
rthumb 25.6108 -77.566
lclavicle -1.51107e-014 -1.04785e-014
lhumerus -35.3066 -7.38186 91.5758
lradius 50.4891
lwrist -5.96763
lhand -8.34671 -34.3224
lfingers 7.12502
lthumb 17.5752 -5.09678
rfemur -25.958 5.71423 20.4646
rtibia 31.1917
rfoot -17.1514 -23.6338
rtoes -11.977
lfemur 14.6102 -17.7459 -35.3249
ltibia 6.4508
lfoot -17.3892 19.1333
ltoes -13.3051
2681
root 10.2393 15.4084 17.7255 -1.46292 2.87856 1.92615
lowerback 6.58633 -2.03248 -4.24578
upperback -6.35053 -3.24285 -0.179
thorax -10.267 -1.26183 2.6788
lowerneck -0.238504 -1.13428 -3.636
upperneck 0.703362 -1.53453 5.15655
head 0.332871 -0.7608 2.23447
rclavicle 1.00365e-014 -1.52195e-016
rhumerus -50.2606 0.103621 -77.6606
rradius 34.9594
rwrist 14.5026
rhand -0.443068 -48.8319
rfingers 7.12502
rthumb 25.1659 -77.193
lclavicle 1.00365e-014 -1.52195e-016
lhumerus -35.535 -8.38673 92.1233
lradius 50.1328
lwrist -5.12362
lhand -10.0944 -34.5698
lfingers 7.12502
lthumb 15.8928 -5.20192
rfemur -25.424 6.87949 19.7079
rtibia 29.2036
rfoot -17.6378 -24.3475
rtoes -10.2148
lfemur 15.8015 -17.3935 -35.9114
ltibia 5.46056
lfoot -16.9231 18.7863
ltoes -12.0422
2682
root 10.233 15.4026 17.831 -1.58683 3.13805 2.14401
lowerback 6.34193 -2.07576 -4.48214
upperback -6.19712 -3.31365 -0.239993
thorax -9.93652 -1.29412 2.73888
lowerneck -0.523413 -1.17059 -3.68739
upperneck 0.949126 -1.58386 5.19048
head 0.461854 -0.780574 2.25301
rclavicle 3.45078e-015 4.66135e-015
rhumerus -50.22 0.187138 -77.7461
rradius 35.2387
rwrist 14.2776
rhand -0.997257 -48.3729
rfingers 7.12502
rthumb 24.6348 -76.8074
lclavicle 3.45078e-015 4.66135e-015
lhumerus -35.6242 -8.66641 92.5356
lradius 49.7019
lwrist -5.1636
lhand -10.5581 -34.562
lfingers 7.12502
lthumb 15.4462 -5.15918
rfemur -24.9404 8.03752 19.1701
rtibia 27.209
rfoot -17.8254 -25.5158
rtoes -10.2763
lfemur 16.6249 -17.1213 -36.2077
ltibia 5.0193
lfoot -16.5895 18.6623
ltoes -12.3331
2683
root 10.221 15.3999 17.9067 -1.36628 3.63584 2.23814
lowerback 6.31402 -2.15162 -4.59254
upperback -6.23057 -3.43147 -0.286962
thorax -9.94565 -1.34445 2.7661
lowerneck -0.750627 -1.30316 -3.58892
upperneck 1.06243 -1.75746 4.99975
head 0.541099 -0.864453 2.16961
rclavicle 3.35449e-016 2.43511e-015
rhumerus -50.2525 0.355071 -77.9637
rradius 35.5464
rwrist 13.9307
rhand -0.554166 -48.4571
rfingers 7.12502
rthumb 25.0595 -76.833
lclavicle 3.35449e-016 2.43511e-015
lhumerus -35.8299 -8.87433 92.9809
lradius 49.2695
lwrist -5.37955
lhand -10.0782 -34.1599
lfingers 7.12502
lthumb 15.9083 -4.79327
rfemur -25.0887 9.83452 18.4693
rtibia 25.5091
rfoot -18.0362 -27.7455
rtoes -11.1431
lfemur 17.7375 -17.1966 -36.2124
ltibia 2.97387
lfoot -15.3234 18.3911
ltoes -12.7124
2684
root 10.2084 15.4004 17.9908 -1.1858 4.02618 2.31903
lowerback 6.2456 -2.20804 -4.67489
upperback -6.29532 -3.5186 -0.331163
thorax -9.96886 -1.38097 2.77509
lowerneck -0.674671 -1.41521 -3.53567
upperneck 0.984967 -1.90626 4.92036
head 0.508955 -0.94034 2.13302
rclavicle -1.33341e-014 8.15017e-015
rhumerus -50.4544 0.787073 -78.2909
rradius 35.9569
rwrist 13.4961
rhand 0.032029 -48.7921
rfingers 7.12502
rthumb 25.6211 -77.0884
lclavicle -1.33341e-014 8.15017e-015
lhumerus -36.3225 -9.18097 93.4479
lradius 48.8315
lwrist -5.42101
lhand -9.8628 -33.7869
lfingers 7.12502
lthumb 16.1158 -4.43694
rfemur -25.1629 12.2351 17.6083
rtibia 23.9413
rfoot -19.3094 -30.1592
rtoes -8.84613
lfemur 19.3639 -17.158 -36.1938
ltibia -1.59028e-014
lfoot -13.7781 17.8374
ltoes -12.5519
2685
root 10.1937 15.3968 18.0678 -0.938442 4.35639 2.26311
lowerback 6.32567 -2.25725 -4.63848
upperback -6.47792 -3.59156 -0.318428
thorax -10.2162 -1.40753 2.78828
lowerneck -0.438419 -1.46976 -3.56814
upperneck 0.824271 -1.98062 4.9933
head 0.423018 -0.980981 2.16403
rclavicle -1.70334e-014 1.09332e-015
rhumerus -50.7584 1.05803 -78.452
rradius 36.3334
rwrist 13.304
rhand -0.0947899 -48.6806
rfingers 7.12502
rthumb 25.4996 -76.9944
lclavicle -1.70334e-014 1.09332e-015
lhumerus -36.8316 -9.33433 93.8682
lradius 48.2729
lwrist -5.56863
lhand -9.02096 -33.342
lfingers 7.12502
lthumb 16.9263 -4.05955
rfemur -25.4077 15.0187 16.7152
rtibia 22.5389
rfoot -21.5394 -32.5547
rtoes -3.8655
lfemur 19.3694 -17.1068 -35.9524
ltibia -3.02153e-014
lfoot -13.6138 17.4474
ltoes -13.2176
2686
root 10.1832 15.3836 18.1632 -0.856074 4.82031 2.49466
lowerback 6.4761 -2.30202 -4.77279
upperback -6.65922 -3.69513 -0.445968
thorax -10.504 -1.44059 2.75481
lowerneck -0.19324 -1.53734 -3.4906
upperneck 0.791759 -2.07612 4.92912
head 0.373442 -1.03197 2.13009
rclavicle 1.61264e-014 7.90169e-015
rhumerus -51.2194 1.00804 -78.4451
rradius 36.6105
rwrist 13.3126
rhand -0.368221 -48.3608
rfingers 7.12502
rthumb 25.2376 -76.7117
lclavicle 1.61264e-014 7.90169e-015
lhumerus -37.4912 -9.62346 94.3656
lradius 47.7184
lwrist -5.63594
lhand -7.75824 -32.6529
lfingers 7.12502
lthumb 18.1415 -3.47891
rfemur -25.5027 17.6793 15.4928
rtibia 21.5069
rfoot -24.5295 -34.8245
rtoes 1.10758
lfemur 19.7357 -17.0995 -36.171
ltibia -6.36111e-015
lfoot -13.5062 17.1565
ltoes -14.1117
2687
root 10.1729 15.3733 18.259 -0.880336 5.02105 2.55518
lowerback 6.17661 -2.2785 -4.76816
upperback -6.46066 -3.64164 -0.512337
thorax -10.1099 -1.43444 2.65155
lowerneck -0.41536 -1.66022 -3.46295
upperneck 0.797703 -2.23442 4.8731
head 0.419224 -1.10838 2.10384
rclavicle -2.66993e-014 7.95139e-016
rhumerus -50.9317 0.820957 -78.3957
rradius 36.6191
rwrist 13.2717
rhand -0.89109 -48.0989
rfingers 7.12502
rthumb 24.7366 -76.5196
lclavicle -2.66993e-014 7.95139e-016
lhumerus -37.6312 -9.98841 94.7425
lradius 46.7213
lwrist -6.8974
lhand -9.07111 -33.4463
lfingers 7.12502
lthumb 16.878 -4.15977
rfemur -25.7183 20.7867 14.4188
rtibia 20.7927
rfoot -27.7287 -37.3052
rtoes 5.01138
lfemur 20.1638 -16.8264 -36.1789
ltibia -1.59028e-014
lfoot -13.5681 16.6668
ltoes -13.6348
2688
root 10.1607 15.3651 18.3509 -0.801831 5.19468 2.74657
lowerback 5.73264 -2.25027 -4.94507
upperback -6.20466 -3.59159 -0.610842
thorax -9.56064 -1.42399 2.60739
lowerneck -0.719652 -1.80254 -3.46622
upperneck 0.678881 -2.41364 4.94608
head 0.443365 -1.19435 2.12464
rclavicle 1.00386e-014 -2.127e-014
rhumerus -50.4074 0.704485 -78.4304
rradius 36.4576
rwrist 13.2831
rhand -1.46686 -47.8228
rfingers 7.12502
rthumb 24.1847 -76.318
lclavicle 1.00386e-014 -2.127e-014
lhumerus -37.4918 -9.85498 94.8061
lradius 45.9607
lwrist -7.79035
lhand -8.8715 -33.9427
lfingers 7.12502
lthumb 17.0701 -4.67261
rfemur -26.2838 23.9536 13.0985
rtibia 20.4436
rfoot -30.9767 -39.8913
rtoes 7.77439
lfemur 20.4516 -16.5611 -36.2503
ltibia 1.43125e-014
lfoot -13.6598 16.1729
ltoes -13.4888
